<svg xmlns="http://www.w3.org/2000/svg" viewBox="0 0 64 64" fill="none">
  <circle cx="32" cy="32" r="30" stroke="#FF9800" stroke-width="4" fill="white"/>
  <!-- Chef Hat -->
  <path d="M20 20h24v4a2 2 0 0 1-2 2H22a2 2 0 0 1-2-2v-4z" fill="#FF9800"/>
  <path d="M32 10c-6 0-10 4-10 8 0 2 1 4 2 5h16c1-1 2-3 2-5 0-4-4-8-10-8z" fill="#FF9800"/>
  <!-- Eyes -->
  <circle cx="26" cy="36" r="1" fill="#FF9800"/>
  <circle cx="38" cy="36" r="1" fill="#FF9800"/>
  <!-- Smile -->
  <path d="M26 40c2 2 10 2 12 0" stroke="#FF9800" stroke-width="2" stroke-linecap="round"/>
  <!-- Styled Text -->
  <text x="32" y="55" font-size="9" text-anchor="middle" fill="#FF9800"
        font-family="cursive, sans-serif" font-weight="bold">Recipe</text>
</svg>
