<svg xmlns="http://www.w3.org/2000/svg" viewBox="0 0 32 32" width="32" height="32" fill="none">
  <!-- Background circle -->
  <circle cx="16" cy="16" r="15" fill="#4F46E5" stroke="#3730A3" stroke-width="2"/>
  
  <!-- Todo list paper -->
  <rect x="8" y="6" width="16" height="20" rx="2" fill="white" stroke="#E5E7EB" stroke-width="1"/>
  
  <!-- Checkbox 1 -->
  <rect x="10" y="9" width="3" height="3" rx="0.5" fill="#10B981" stroke="#059669" stroke-width="0.5"/>
  <path d="M11 10.5L11.5 11L12.5 9.5" stroke="white" stroke-width="0.8" stroke-linecap="round" stroke-linejoin="round"/>
  
  <!-- Checkbox 2 -->
  <rect x="10" y="13" width="3" height="3" rx="0.5" fill="#F59E0B" stroke="#D97706" stroke-width="0.5"/>
  <path d="M11 14.5L11.5 15L12.5 13.5" stroke="white" stroke-width="0.8" stroke-linecap="round" stroke-linejoin="round"/>
  
  <!-- Checkbox 3 -->
  <rect x="10" y="17" width="3" height="3" rx="0.5" fill="#EF4444" stroke="#DC2626" stroke-width="0.5"/>
  <path d="M11 18.5L11.5 19L12.5 17.5" stroke="white" stroke-width="0.8" stroke-linecap="round" stroke-linejoin="round"/>
  
  <!-- Todo items text lines -->
  <rect x="15" y="10" width="7" height="1" rx="0.5" fill="#6B7280"/>
  <rect x="15" y="14" width="6" height="1" rx="0.5" fill="#6B7280"/>
  <rect x="15" y="18" width="5" height="1" rx="0.5" fill="#6B7280"/>
  
  <!-- Plus button -->
  <circle cx="24" cy="8" r="2" fill="#10B981" stroke="#059669" stroke-width="0.5"/>
  <path d="M24 7V9M23 8H25" stroke="white" stroke-width="0.8" stroke-linecap="round"/>
  
  <!-- Decorative dots -->
  <circle cx="12" cy="23" r="0.5" fill="#9CA3AF"/>
  <circle cx="14" cy="23" r="0.5" fill="#9CA3AF"/>
  <circle cx="16" cy="23" r="0.5" fill="#9CA3AF"/>
</svg>